<svg width="15" height="16" viewBox="0 0 15 16" xmlns="http://www.w3.org/2000/svg"><title>Search - FontAwesome</title><path d="M10.357 6.714c0-1.1-.39-2.043-1.174-2.826-.783-.782-1.725-1.174-2.826-1.174-1.1 0-2.043.392-2.826 1.174-.78.783-1.173 1.725-1.173 2.826 0 1.1.392 2.043 1.174 2.826.784.783 1.726 1.174 2.827 1.174 1.1 0 2.043-.39 2.826-1.174.783-.783 1.174-1.725 1.174-2.826zm4.572 7.43c0 .308-.115.576-.34.802-.227.227-.495.34-.804.34-.322 0-.59-.113-.804-.34L9.92 11.893A6.114 6.114 0 0 1 6.357 13c-.85 0-1.665-.165-2.442-.496a6.285 6.285 0 0 1-2.01-1.34A6.285 6.285 0 0 1 .568 9.157 6.176 6.176 0 0 1 .07 6.714c0-.85.167-1.665.497-2.442a6.285 6.285 0 0 1 1.34-2.01A6.285 6.285 0 0 1 3.914.925 6.176 6.176 0 0 1 6.357.43c.85 0 1.665.164 2.442.494.776.33 1.446.777 2.008 1.34a6.285 6.285 0 0 1 1.34 2.008c.33.777.495 1.59.495 2.442 0 1.31-.37 2.497-1.107 3.563l3.062 3.062c.22.22.33.487.33.803z" fill="#000" fill-rule="evenodd"/></svg>