<svg width="17" height="15" viewBox="0 0 17 15" xmlns="http://www.w3.org/2000/svg"><title>shopping-cart - FontAwesome</title><path d="M10.43 13c0 .355.124.658.375.91.25.25.554.376.91.376.354 0 .657-.126.908-.377.25-.252.377-.555.377-.91a1.24 1.24 0 0 0-.377-.91 1.24 1.24 0 0 0-.91-.376 1.24 1.24 0 0 0-.908.377 1.24 1.24 0 0 0-.376.91zm-9 0c0 .355.124.658.375.91.25.25.554.376.91.376.354 0 .657-.126.908-.377.25-.252.377-.555.377-.91a1.24 1.24 0 0 0-.377-.91 1.24 1.24 0 0 0-.91-.376 1.24 1.24 0 0 0-.908.377 1.24 1.24 0 0 0-.376.91zM.142 2.07v5.144c0 .16.053.303.16.427a.624.624 0 0 0 .412.217l10.487 1.226c-.007.046-.022.118-.045.216a8.738 8.738 0 0 0-.06.265 1.09 1.09 0 0 0-.026.22c0 .108.082.322.242.644h-9.24a.618.618 0 0 0-.453.19.618.618 0 0 0-.19.45c0 .176.062.326.19.453.127.128.277.19.45.19h10.287a.618.618 0 0 0 .452-.19.618.618 0 0 0 .19-.452c0-.092-.037-.225-.11-.395a7.477 7.477 0 0 0-.297-.598 28.387 28.387 0 0 1-.206-.382l1.778-8.266h2.05a.618.618 0 0 0 .45-.192.618.618 0 0 0 .192-.452.618.618 0 0 0-.19-.452.618.618 0 0 0-.453-.19h-2.57a.643.643 0 0 0-.487.22.803.803 0 0 0-.132.246 1.765 1.765 0 0 0-.075.266l-.055.296c-.024.124-.04.21-.046.257H.785a.618.618 0 0 0-.452.19.618.618 0 0 0-.19.45z" fill="#FFF" fill-rule="evenodd"/></svg>