<svg width="19" height="17" viewBox="0 0 19 17" xmlns="http://www.w3.org/2000/svg"><title>shopping-cart - FontAwesome</title><path d="M11.643 15c0 .394.14.73.418 1.01.28.28.617.42 1.01.42.396 0 .732-.14 1.01-.42.28-.28.42-.616.42-1.01s-.14-.73-.42-1.01c-.278-.28-.614-.42-1.01-.42-.393 0-.73.14-1.01.42-.278.28-.417.616-.417 1.01zm-10 0c0 .394.14.73.418 1.01.28.28.617.42 1.01.42.396 0 .732-.14 1.01-.42.28-.28.42-.616.42-1.01s-.14-.73-.42-1.01c-.278-.28-.614-.42-1.01-.42-.393 0-.73.14-1.01.42-.278.28-.417.616-.417 1.01zM.213 2.857V8.57c0 .18.06.338.18.476.12.137.27.217.457.24l11.652 1.36a2.864 2.864 0 0 1-.05.24 9.71 9.71 0 0 0-.067.297c-.02.09-.028.17-.028.246 0 .118.09.356.268.713H2.357c-.193 0-.36.07-.502.212a.686.686 0 0 0-.212.502c0 .194.07.36.212.502.14.14.31.21.502.21h11.43c.192 0 .36-.07.5-.21.142-.142.213-.31.213-.503 0-.104-.04-.25-.123-.44a8.308 8.308 0 0 0-.33-.665 31.556 31.556 0 0 1-.228-.424l1.975-9.185h2.276c.195 0 .362-.07.504-.212.14-.14.212-.308.212-.5 0-.195-.07-.362-.212-.504a.686.686 0 0 0-.503-.212h-2.856a.714.714 0 0 0-.54.246.892.892 0 0 0-.146.273 1.96 1.96 0 0 0-.084.296l-.06.328a7.66 7.66 0 0 0-.05.285H.928c-.195 0-.362.07-.504.212a.686.686 0 0 0-.212.502z" fill="#000" fill-rule="evenodd"/></svg>