<svg width="16" height="17" viewBox="0 0 16 17" xmlns="http://www.w3.org/2000/svg" xmlns:xlink="http://www.w3.org/1999/xlink"><title>Page 1</title><defs><path id="a" d="M8.66.002H.358v9.144H8.66V.002z"/><path id="c" d="M7.803 6.4h7.804V.27H0V6.4h7.803z"/></defs><g fill="none" fill-rule="evenodd"><g transform="translate(3.294 .455)"><mask id="b" fill="#fff"><use xlink:href="#a"/></mask><path d="M.36 4.576H.358c0 1.27.472 2.42 1.234 3.248 1.705 1.856 4.305 1.665 5.834 0 .762-.828 1.234-1.978 1.234-3.25h-.002v-.002h.002c0-1.27-.472-2.42-1.235-3.25-1.62-1.762-4.216-1.76-5.833 0-.762.83-1.234 1.98-1.234 3.25H.36v.004z" fill="#FFF" mask="url(#b)"/></g><g transform="translate(0 10.598)"><mask id="d" fill="#fff"><use xlink:href="#c"/></mask><path d="M15.156 3.144c-.26-.32-.592-.59-.988-.798L10.198.27a4.777 4.777 0 0 1-2.393.643v.003h-.002V.913A4.78 4.78 0 0 1 5.408.27l-3.97 2.076a3.132 3.132 0 0 0-.987.798 1.925 1.925 0 0 0-.235 2.123C.57 5.977 1.265 6.4 2.078 6.4h11.45c.814 0 1.51-.423 1.864-1.133a1.925 1.925 0 0 0-.236-2.123" fill="#FFF" mask="url(#d)"/></g></g></svg>