<svg xmlns="http://www.w3.org/2000/svg" width="163" height="46" viewBox="0 0 163 46"><path fill="#ed498d" d="M158.64 20.28c-1.06-1.08-2.65-1.63-4.75-1.63h-2.75v13.1h2.31c2.25 0 3.95-.56 5.09-1.68 1.13-1.11 1.7-2.77 1.7-4.96 0-2.14-.53-3.75-1.6-4.83zm1.42 10.98c-1.46 1.43-3.56 2.14-6.3 2.14h-4.51V17h4.98c2.54 0 4.51.71 5.91 2.12 1.41 1.42 2.11 3.39 2.11 5.93 0 2.7-.73 4.78-2.19 6.21zm-23.02-6.31h2.59c1.34 0 2.32-.27 2.94-.8.63-.53.94-1.34.94-2.41 0-1.08-.32-1.87-.96-2.34-.63-.48-1.65-.72-3.05-.72h-2.46zm0 1.63v6.82h-1.89V17h4.46c2 0 3.47.39 4.43 1.16.95.77 1.43 1.92 1.43 3.47 0 2.18-1.09 3.64-3.27 4.41l4.42 7.36h-2.24l-3.95-6.82zM128.78 17h1.9v16.4h-1.9zm-9.64 8.64c1.39 0 2.42.24 3.1.72.68.48 1.02 1.22 1.02 2.24 0 1.09-.33 1.89-1 2.4-.66.52-1.66.78-2.96.78h-3.41v-6.14zm-3.25-6.99h2.79c1.43 0 2.46.21 3.12.62.65.4.98 1.07.98 1.99 0 1-.29 1.71-.88 2.14-.59.42-1.55.63-2.89.63h-3.12zM114 33.4h5.68c1.77 0 3.15-.41 4.13-1.23a4.23 4.23 0 0 0 1.48-3.43c0-2.19-1.24-3.51-3.71-3.93v-.11a3.87 3.87 0 0 0 2.35-1.23c.54-.63.81-1.44.81-2.41 0-1.4-.49-2.43-1.45-3.08-.96-.65-2.53-.98-4.69-.98H114z"/><path fill="#fff" d="M18.64 3.08a.75.75 0 1 1-1.5 0 .75.75 0 0 1 1.5 0zm8.2 18.71c0 .57-.48 1.03-1.08 1.03-.59 0-1.07-.46-1.07-1.03 0-.57.48-1.02 1.07-1.02.6 0 1.08.45 1.08 1.02zm-8.4 24.12h-1.1v-3.26c.37 0 .73-.02 1.1-.05zM20.55.75c0-.42-1.19-.75-2.66-.75-1.47 0-2.66.33-2.66.75v6.92h.02l.08-.01.07-.01h.03l.18-.02h.09l.18-.02h.1l.09-.01h.09l.19-.02h.1l.09-.01h.09l.1-.01h.29l.04-.01v2.72A17.96 17.96 0 0 0 0 28.27c0 7.13 4.12 13.29 10.09 16.21v.3c0 .62.5 1.13 1.12 1.13h4.98v-3.3a12.97 12.97 0 0 1-8.36-3.68c7.46.71 10.58-2.7 10-13.65-.21-3.95 2.23-6.83 5.46-7.47a6.54 6.54 0 0 1 7.69 5.05l2.86.99-2.43 1.91c.49 8.36-3.01 15.41-11.82 16.72v3.43h4.98c.62 0 1.12-.51 1.12-1.13v-.29a18.05 18.05 0 0 0 10.09-16.22c0-9.67-7.56-17.57-17.06-18V7.55l.05.01h.28l.09.01h.1l.09.01h.1l.19.02h.09l.09.01h.1l.18.02h.09l.18.02h.03l.07.01.08.01h.02zM69.09 40c.61 0 1.1.49 1.1 1.1a1.1 1.1 0 1 1-2.19 0c0-.61.49-1.1 1.09-1.1M137.1 40c.6 0 1.09.49 1.09 1.1a1.1 1.1 0 1 1-2.19 0c0-.61.49-1.1 1.1-1.1M132.37 44.11h-.43l-1.92-2.66-.66.59v2.07h-.35v-5.03h.35v2.61l.55-.56 1.96-2.05h.44l-2.04 2.12zm-11.31-2.5h.95c.43 0 .75-.09.98-.28.24-.19.35-.47.35-.84 0-.39-.11-.67-.34-.84-.22-.18-.6-.27-1.11-.27h-.83zm0 .31v2.19h-.35v-5.03h1.19c.62 0 1.08.11 1.38.34.29.23.44.58.44 1.04 0 .34-.09.63-.27.86-.17.23-.44.4-.8.5l1.36 2.29h-.42l-1.29-2.19zm-9.25 1.34c.32.39.78.59 1.38.59.6 0 1.06-.19 1.38-.58.32-.4.48-.96.48-1.69 0-.72-.16-1.28-.48-1.67-.32-.38-.77-.57-1.38-.57-.59 0-1.05.19-1.37.58-.32.39-.48.95-.48 1.66 0 .72.16 1.29.47 1.68zm3.02.22c-.39.47-.94.7-1.64.7-.69 0-1.24-.23-1.64-.7a2.84 2.84 0 0 1-.59-1.9c0-.8.2-1.43.6-1.89.4-.46.94-.69 1.63-.69.71 0 1.25.23 1.64.69.4.47.59 1.1.59 1.9 0 .8-.19 1.43-.59 1.89zm-19.66.63h-.29l-1.09-3.89-.21-.78c-.03.2-.09.43-.15.69l-1.11 3.98h-.29l-1.38-5.03h.37l.88 3.24.09.37.08.31.07.28.05.27c.05-.31.17-.78.35-1.42l.86-3.05h.38l1 3.5c.12.41.2.73.25.98l.12-.53 1.05-3.95h.35zm-9.25 0h-2.73v-5.03h2.73v.32h-2.38v1.9h2.25v.33h-2.25v2.15h2.38zm18.62-2.28l1.47-2.75h.37l-1.66 3.08v1.95h-.36v-1.92l-1.68-3.11h.4zm-26.91-2.75h-.33v3.28l.03 1.18h-.02l-2.96-4.46H74v5.03h.34v-3.27c0-.26-.02-.67-.05-1.2h.03l2.96 4.47h.35zM105.96 17.31h5.3v-1.08H99.52v1.08h5.29v15.32h1.15zm-8.86-1.08H96v10.7c0 1.22.03 2.49.1 3.84h-.07L86.4 16.23h-1.14v16.4h1.09V22c0-.88-.04-2.2-.13-3.93h.09l9.64 14.56h1.15zM81.58 31.58h-7.76v-7.03h7.32v-1.06h-7.32v-6.21h7.76v-1.05h-8.91v16.4h8.91zM65.45 17.01c1.31 0 2.56.3 3.74.89l.47-1.02a10.09 10.09 0 0 0-4.27-.88 7.9 7.9 0 0 0-4.11 1.04 6.9 6.9 0 0 0-2.71 2.94 9.94 9.94 0 0 0-.93 4.41c0 2.67.65 4.75 1.97 6.24 1.31 1.49 3.11 2.23 5.4 2.23 1.61 0 2.95-.19 4.03-.57v-1.01c-1.14.35-2.4.53-3.77.53-2.05 0-3.63-.65-4.74-1.95-1.1-1.29-1.66-3.11-1.66-5.46 0-2.29.59-4.09 1.76-5.42a6.14 6.14 0 0 1 4.82-1.97zM53.56 31.66c-1 .8-2.32 1.2-3.98 1.2-1.99 0-3.51-.22-4.58-.66v-1.15c1.18.51 2.67.76 4.49.76 1.34 0 2.4-.32 3.18-.93a2.93 2.93 0 0 0 1.18-2.43c0-.62-.13-1.13-.39-1.54a3.64 3.64 0 0 0-1.27-1.12c-.59-.33-1.45-.69-2.59-1.08-1.66-.58-2.81-1.2-3.44-1.87a3.73 3.73 0 0 1-.96-2.68c0-1.22.48-2.23 1.44-3A5.6 5.6 0 0 1 50.32 16c1.52 0 2.96.29 4.31.87l-.42.99a9.94 9.94 0 0 0-3.87-.85 4.5 4.5 0 0 0-2.87.84 2.73 2.73 0 0 0-1.07 2.29c0 .6.1 1.1.32 1.49.22.39.58.74 1.08 1.05.5.31 1.35.68 2.56 1.11 1.27.45 2.23.88 2.86 1.29.64.41 1.11.89 1.4 1.42.3.52.44 1.16.44 1.91 0 1.37-.5 2.45-1.5 3.25z"/></svg>