<?xml version="1.0" encoding="UTF-8"?>
<svg width="78px" height="19px" viewBox="0 0 78 19" version="1.1" xmlns="http://www.w3.org/2000/svg" xmlns:xlink="http://www.w3.org/1999/xlink">
    <!-- Generator: Sketch 42 (36781) - http://www.bohemiancoding.com/sketch -->
    <title>Scentbird white</title>
    <desc>Created with Sketch.</desc>
    <defs/>
    <g id="Page-1" stroke="none" stroke-width="1" fill="none" fill-rule="evenodd">
        <g id="Scentbird-white">
            <g id="Group-4" transform="translate(45.000000, 0.000000)" fill="#FF458F">
                <path d="M30.717,6.112 C30.717,4.722 30.368,3.673 29.669,2.97 C28.972,2.264 27.932,1.91 26.558,1.91 L24.754,1.91 L24.754,10.433 L26.264,10.433 C27.743,10.433 28.854,10.069 29.601,9.341 C30.344,8.614 30.717,7.536 30.717,6.112 Z M32.031,6.069 C32.031,7.831 31.553,9.181 30.597,10.11 C29.641,11.04 28.264,11.509 26.468,11.509 L23.513,11.509 L23.513,0.834 L26.78,0.834 C28.44,0.834 29.73,1.294 30.651,2.214 C31.571,3.136 32.031,4.421 32.031,6.069 Z M15.513,6.007 L17.211,6.007 C18.089,6.007 18.73,5.833 19.137,5.483 C19.547,5.14 19.751,4.614 19.751,3.919 C19.751,3.214 19.544,2.704 19.127,2.394 C18.713,2.083 18.044,1.925 17.124,1.925 L15.513,1.925 L15.513,6.007 Z M15.513,7.069 L15.513,11.509 L14.271,11.509 L14.271,0.834 L17.196,0.834 C18.506,0.834 19.474,1.086 20.098,1.586 C20.722,2.087 21.035,2.841 21.035,3.849 C21.035,5.263 20.321,6.216 18.892,6.714 L21.789,11.509 L20.321,11.509 L17.736,7.069 L15.513,7.069 Z M10.102,11.508 L11.343,11.508 L11.343,0.834 L10.102,0.834 L10.102,11.508 Z M1.655,6.456 L1.655,10.448 L3.886,10.448 C4.743,10.448 5.394,10.28 5.827,9.946 C6.265,9.614 6.482,9.093 6.482,8.382 C6.482,7.722 6.258,7.235 5.817,6.921 C5.369,6.61 4.692,6.456 3.782,6.456 L1.655,6.456 Z M1.655,5.409 L3.699,5.409 C4.575,5.409 5.206,5.273 5.59,4.995 C5.977,4.722 6.169,4.257 6.169,3.606 C6.169,3.007 5.954,2.573 5.526,2.309 C5.096,2.044 4.419,1.91 3.482,1.91 L1.655,1.91 L1.655,5.409 Z M0.415,0.834 L3.431,0.834 C4.846,0.834 5.872,1.046 6.503,1.47 C7.135,1.894 7.452,2.565 7.452,3.478 C7.452,4.11 7.278,4.634 6.925,5.046 C6.571,5.456 6.058,5.722 5.38,5.845 L5.38,5.917 C7.001,6.192 7.811,7.046 7.811,8.472 C7.811,9.427 7.487,10.171 6.845,10.706 C6.199,11.241 5.297,11.509 4.139,11.509 L0.415,11.509 L0.415,0.834 L0.415,0.834 Z" id="Fill-1"/>
            </g>
            <path d="M16.48,15.993 C16.878,15.993 17.197,16.313 17.197,16.71 C17.197,17.106 16.878,17.425 16.48,17.425 C16.085,17.425 15.764,17.106 15.764,16.71 C15.764,16.313 16.085,15.993 16.48,15.993" id="Fill-5" fill="#000000"/>
            <path d="M61.011,15.993 C61.405,15.993 61.728,16.313 61.728,16.71 C61.728,17.106 61.405,17.425 61.011,17.425 C60.613,17.425 60.293,17.106 60.293,16.71 C60.293,16.313 60.613,15.993 61.011,15.993" id="Fill-6" fill="#000000"/>
            <path d="M57.871,18.353 L57.591,18.353 L56.332,16.62 L55.895,17.005 L55.895,18.353 L55.668,18.353 L55.668,15.073 L55.895,15.073 L55.895,16.776 L56.26,16.413 L57.544,15.073 L57.833,15.073 L56.493,16.458 L57.871,18.353 Z M50.46,16.726 L51.083,16.726 C51.361,16.726 51.574,16.663 51.727,16.54 C51.878,16.417 51.955,16.233 51.955,15.993 C51.955,15.741 51.882,15.558 51.731,15.446 C51.583,15.331 51.339,15.274 51,15.274 L50.46,15.274 L50.46,16.726 Z M50.46,16.925 L50.46,18.353 L50.231,18.353 L50.231,15.073 L51.011,15.073 C51.417,15.073 51.718,15.149 51.911,15.298 C52.104,15.448 52.202,15.675 52.202,15.976 C52.202,16.196 52.145,16.382 52.028,16.532 C51.913,16.683 51.738,16.792 51.501,16.858 L52.392,18.353 L52.117,18.353 L51.272,16.925 L50.46,16.925 Z M44.087,16.706 C44.087,17.175 44.191,17.54 44.4,17.796 C44.61,18.052 44.911,18.179 45.302,18.179 C45.697,18.179 45.997,18.054 46.206,17.802 C46.413,17.546 46.519,17.181 46.519,16.706 C46.519,16.235 46.413,15.872 46.206,15.62 C45.997,15.368 45.699,15.243 45.305,15.243 C44.916,15.243 44.615,15.368 44.404,15.624 C44.193,15.878 44.087,16.239 44.087,16.706 Z M46.766,16.708 C46.766,17.228 46.636,17.642 46.379,17.942 C46.119,18.245 45.758,18.397 45.302,18.397 C44.847,18.397 44.487,18.245 44.227,17.942 C43.969,17.642 43.839,17.228 43.839,16.702 C43.839,16.183 43.97,15.771 44.231,15.472 C44.494,15.175 44.851,15.024 45.305,15.024 C45.764,15.024 46.122,15.175 46.379,15.474 C46.638,15.776 46.766,16.188 46.766,16.708 Z M33.494,18.353 L33.306,18.353 L32.586,15.821 C32.527,15.616 32.481,15.444 32.453,15.312 C32.429,15.44 32.395,15.589 32.351,15.759 C32.306,15.929 32.064,16.792 31.627,18.353 L31.435,18.353 L30.532,15.073 L30.773,15.073 L31.348,17.185 C31.369,17.271 31.39,17.349 31.41,17.423 C31.43,17.493 31.446,17.562 31.462,17.626 C31.479,17.688 31.493,17.751 31.505,17.808 C31.519,17.868 31.529,17.929 31.54,17.985 C31.576,17.784 31.652,17.476 31.769,17.061 L32.33,15.073 L32.583,15.073 L33.24,17.354 C33.315,17.618 33.371,17.831 33.403,17.991 C33.422,17.886 33.447,17.769 33.477,17.649 C33.508,17.528 33.739,16.671 34.169,15.073 L34.4,15.073 L33.494,18.353 Z M27.435,18.353 L25.641,18.353 L25.641,15.073 L27.435,15.073 L27.435,15.286 L25.87,15.286 L25.87,16.522 L27.345,16.522 L27.345,16.735 L25.87,16.735 L25.87,18.138 L27.435,18.138 L27.435,18.353 Z M39.634,16.866 L40.595,15.073 L40.842,15.073 L39.749,17.083 L39.749,18.353 L39.514,18.353 L39.514,17.103 L38.417,15.073 L38.679,15.073 L39.634,16.866 Z M22.002,18.353 L21.772,18.353 L19.832,15.44 L19.813,15.44 C19.832,15.788 19.84,16.05 19.84,16.224 L19.84,18.353 L19.62,18.353 L19.62,15.073 L19.85,15.073 L21.786,17.979 L21.801,17.979 C21.786,17.71 21.78,17.454 21.78,17.212 L21.78,15.073 L22.002,15.073 L22.002,18.353 L22.002,18.353 Z" id="Fill-7" fill="#000000"/>
            <path d="M40.408,11.509 L39.656,11.509 L39.656,1.539 L36.187,1.539 L36.187,0.834 L43.877,0.834 L43.877,1.539 L40.408,1.539 L40.408,11.509 Z M34.601,11.509 L33.851,11.509 L27.531,2.033 L27.471,2.033 C27.531,3.161 27.558,4.015 27.558,4.587 L27.558,11.509 L26.843,11.509 L26.843,0.834 L27.587,0.834 L33.9,10.298 L33.943,10.298 C33.9,9.421 33.88,8.589 33.88,7.798 L33.88,0.834 L34.601,0.834 L34.601,11.509 Z M24.431,11.509 L18.595,11.509 L18.595,0.834 L24.431,0.834 L24.431,1.522 L19.343,1.522 L19.343,5.56 L24.146,5.56 L24.146,6.247 L19.343,6.247 L19.343,10.821 L24.431,10.821 L24.431,11.509 Z M13.863,1.343 C12.524,1.343 11.47,1.772 10.703,2.627 C9.933,3.487 9.549,4.661 9.549,6.153 C9.549,7.679 9.913,8.864 10.638,9.706 C11.364,10.55 12.397,10.972 13.744,10.972 C14.642,10.972 15.465,10.857 16.213,10.628 L16.213,11.284 C15.507,11.534 14.628,11.657 13.571,11.657 C12.074,11.657 10.892,11.175 10.031,10.206 C9.17,9.235 8.74,7.884 8.74,6.146 C8.74,5.06 8.943,4.103 9.354,3.276 C9.766,2.45 10.358,1.812 11.128,1.36 C11.901,0.908 12.798,0.686 13.82,0.686 C14.861,0.686 15.794,0.877 16.616,1.258 L16.314,1.925 C15.535,1.539 14.721,1.343 13.863,1.343 Z M7.053,8.761 C7.053,9.649 6.727,10.357 6.071,10.876 C5.416,11.397 4.547,11.657 3.462,11.657 C2.157,11.657 1.158,11.515 0.459,11.228 L0.459,10.479 C1.229,10.808 2.209,10.972 3.402,10.972 C4.28,10.972 4.971,10.767 5.488,10.368 C6.001,9.966 6.258,9.44 6.258,8.788 C6.258,8.386 6.173,8.05 6.001,7.786 C5.832,7.52 5.553,7.278 5.169,7.058 C4.785,6.839 4.219,6.604 3.474,6.351 C2.386,5.974 1.633,5.571 1.218,5.136 C0.802,4.7 0.592,4.118 0.592,3.394 C0.592,2.596 0.906,1.944 1.531,1.44 C2.157,0.936 2.958,0.686 3.943,0.686 C4.944,0.686 5.887,0.875 6.769,1.254 L6.497,1.897 C5.613,1.527 4.766,1.343 3.958,1.343 C3.168,1.343 2.541,1.526 2.075,1.892 C1.606,2.254 1.374,2.751 1.374,3.378 C1.374,3.772 1.445,4.095 1.589,4.349 C1.732,4.603 1.968,4.831 2.294,5.032 C2.62,5.235 3.178,5.478 3.973,5.757 C4.805,6.046 5.43,6.327 5.849,6.595 C6.267,6.864 6.572,7.171 6.764,7.515 C6.957,7.858 7.053,8.272 7.053,8.761 L7.053,8.761 Z" id="Fill-8" fill="#000000"/>
        </g>
    </g>
</svg>